<svg height="512" viewBox="0 0 60 60" width="512" xmlns="http://www.w3.org/2000/svg"><g id="009---Animal-Sanctuary-Volunteer" fill="none"><g id="Layer_3" transform="translate(1 1)"><path id="Shape" d="m58 28v23c.0061167 1.2713341-.798164 2.40537-2 2.82v2.18c-.0032948 1.1032019-.8967981 1.9967052-2 2h-8c-1.1032019-.0032948-1.9967052-.8967981-2-2v-2.17c-.8391215-.2984213-1.5022738-.954246-1.81-1.79-.1300501-.3580905-.2871707-.7057616-.47-1.04-.2548989-.5272654-.573984-1.0210076-.95-1.47l-2.12-2.53-5.27-6.29c-.4146141-.4932139-.5039791-1.1827398-.2287961-1.7653539.275183-.582614.8645006-.9515814 1.5087961-.9446461.3078407-.0008615.609578.0858446.87.25l6.47 3.75v-16c.0032948-1.1032019.8967981-1.9967052 2-2 1.1011688.0081672 1.9918328.8988312 2 2v-4c.0032948-1.1032019.8967981-1.9967052 2-2 1.1011688.0081672 1.9918328.8988312 2 2v4c.0032948-1.1032019.8967981-1.9967052 2-2 1.1011688.0081672 1.9918328.8988312 2 2v2c.0032948-1.1032019.8967981-1.9967052 2-2 1.1011688.0081672 1.9918328.8988312 2 2z" fill="#ffe0b2"/><path id="Shape" d="m57.41 26.59c-.3704612-.3798589-.8794095-.5928231-1.41-.59-.578046.0039135-1.125701.2594859-1.5.7.3210205.3570046.4990534.81989.5 1.3v23c.0061167 1.2713341-.798164 2.40537-2 2.82v2.18c-.0032948 1.1032019-.8967981 1.9967052-2 2h3c1.1032019-.0032948 1.9967052-.8967981 2-2v-2.18c1.201836-.41463 2.0061167-1.5486659 2-2.82v-23c.0028231-.5305905-.2101411-1.0395388-.59-1.41z" fill="#dfc49c"/><path id="Shape" d="m51.96 12.39c-.1859544.9353078-1.0063863 1.609234-1.96 1.61-.2638838-.0004389-.5252475-.0513539-.77-.15l-1.23-.51-21.62-9.01c-.241381-.11005299-.518619-.11005299-.76 0l-21.62 9.01-1.23.51c-.52449173.2193032-1.11752796.2050388-1.63086932-.0392278-.51334136-.2442665-.89847514-.6954509-1.05913068-1.2407722-.26573628-1.0210001.27617567-2.0790187 1.26-2.46l23.89-9.96c.493846-.20003507 1.046154-.20003507 1.54 0l23.91 9.97c.9135059.3544856 1.4494123 1.3048822 1.28 2.27z" fill="#ff5722"/><path id="Shape" d="m48 13.34v6.66c-1.1032019.0032948-1.9967052.8967981-2 2v4c-.0081672-1.1011688-.8988312-1.9918328-2-2-1.1032019.0032948-1.9967052.8967981-2 2v16l-6.47-3.75c-.260422-.1641554-.5621593-.2508615-.87-.25-.6442955-.0069353-1.2336131.3620321-1.5087961.9446461-.275183.5826141-.185818 1.27214.2287961 1.7653539l5.27 6.29h-34.65v-33.66l21.62-9.01c.241381-.11005299.518619-.11005299.76 0z" fill="#ff9801"/><g fill="#a0522d"><path id="Shape" d="m34.85 31.95c-.4092576 1.2258866-1.5576045 2.0518905-2.85 2.05-.3192172-.0009379-.6363443-.0515433-.94-.15-1.6404756-.5108174-3.3426591-.7967573-5.06-.85-1.717506.0515712-3.4199145.337549-5.06.85-1.5740115.5219091-3.2730909-.3309885-3.795-1.905s.3309885-3.2730909 1.905-3.795c.042-.011.4-.128.988-.283 1.0311059-.2423325 1.9202614-.8916145 2.465-1.8.7053685-1.2702346 2.044058-2.058096 3.497-2.058096s2.7916315.7878614 3.497 2.058096c.5447386.9083855 1.4338941 1.5576675 2.465 1.8.583.155.946.272.988.283 1.5697904.5295287 2.4182513 2.2264504 1.9 3.8z"/><path id="Shape" d="m22.583 19.93c-1.252.41-2.74-1.026-3.333-3.191s-.076-4.269 1.167-4.669 2.74 1.026 3.333 3.191.076 4.269-1.167 4.669z"/><path id="Shape" d="m17.251 24.757c-.989.6-2.562.052-3.525-1.2-.98-1.247-.962-2.744.018-3.325s2.563-.043 3.534 1.2.963 2.745-.027 3.325z"/><path id="Shape" d="m34.749 24.757c.989.6 2.562.052 3.525-1.2.98-1.247.962-2.744-.018-3.325s-2.563-.043-3.534 1.2-.963 2.745.027 3.325z"/><path id="Shape" d="m29.417 19.93c1.252.41 2.74-1.026 3.333-3.191s.076-4.269-1.167-4.669-2.74 1.026-3.333 3.191-.076 4.269 1.167 4.669z"/></g><path id="Shape" d="m41.72 51h-39.72c-1.10320187-.0032948-1.9967052-.8967981-2-2 .00816722-1.1011688.89883122-1.9918328 2-2h36.65l2.12 2.53c.376016.4489924.6951011.9427346.95 1.47z" fill="#ff5722"/></g><g id="Layer_12" fill="#000"><path id="Shape" d="m55.9 26.21c-.2267957-.8010191-.77328-1.4733823-1.5110406-1.8590987s-1.6017537-.4507796-2.3889594-.1799013c0-1.257.13-2.3-.873-3.279-.3161081-.3201355-.7017597-.5630926-1.127-.71v-4.366c.818465.2998512 1.7272881.2254099 2.4860499-.2036312.7587617-.4290411 1.2910121-1.1694534 1.4559501-2.0253688.264665-1.4340805-.5214925-2.8551953-1.877-3.393l-23.911-9.963c-.7389037-.30601011-1.5690963-.30601011-2.308 0l-23.894 9.955c-1.12202749.4303067-1.88122215 1.4860194-1.93205419 2.6866549-.05083205 1.2006356.61641304 2.3167403 1.69805419 2.8403451.71772041.3329433 1.53790675.3688848 2.282.1v31.187c-1.177 0-2.128-.1-3.117.883-.8543632.8578368-1.10935013 2.1451459-.64650352 3.2638923s1.55279779 1.8496291 2.76350352 1.8531077h39.073c.057.133.127.248.179.387.3205784.8761823.9394298 1.6115108 1.748 2.077v1.536c0 1.6568542 1.3431458 3 3 3h8c1.6568542 0 3-1.3431458 3-3v-1.539c1.2395242-.7110927 2.0028289-2.0319916 2-3.461v-23c-.0061181-.9903309-.4986735-1.9143737-1.3174342-2.4715304-.8187608-.5571567-1.8590918-.6762244-2.7825658-.3184696zm-53.328-12.305c-.36787896-.1859712-.58674811-.5759628-.55384115-.986861s.3110537-.7610861.70384115-.886139c25.501-10.632 23.964-10.032 24.278-10.032s-1.258-.6 24.3 10.04c.4685222.1741215.7538444.6496585.687 1.145-.0529781.2981258-.2392158.5557304-.5057065.6994952-.2664908.1437648-.5840496.157945-.8622935.0385048l-22.849-9.523c-.493064-.20400896-1.046936-.20400896-1.54 0l-22.844 9.523c-.26140808.1107571-.5577434.1042042-.814-.018zm3.428 1.095 21-8.75 21 8.75v5.184c-1.1943509.4222546-1.9947486 1.5492146-2 2.816v1.169c-.9185613-.3218499-1.9361052-.1790312-2.7305727.3832532-.7944675.5622843-1.2675177 1.4744336-1.2694273 2.4477468v14.265l-4.938-2.865c-1.0556382-.6380751-2.4087969-.484027-3.294.375-.9665125.9727032-1.033672 2.5212734-.155 3.574l3.895 4.651h-31.508zm-4 35c.00700589-.5493566.45064335-.9929941 1-1h36.183l1.676 2h-37.859c-.55228475 0-1-.4477153-1-1zm56 2c0 1.1045695-.8954305 2-2 2-.5522847 0-1 .4477153-1 1s.4477153 1 1 1v1c0 .5522847-.4477153 1-1 1h-8c-.5522847 0-1-.4477153-1-1v-1c.5522847 0 1-.4477153 1-1s-.4477153-1-1-1c-.2283279-.0019474-.4547452-.0418239-.67-.118-1.509-.528-1.006-1.858-2.794-3.994l-7.387-8.817c-.2105922-.2521688-.2017921-.6213339.0205765-.8631818.2223685-.2418479.5894986-.2815444.8584235-.0928182l5.972 3.462v1.423c0 .5522847.4477153 1 1 1s1-.4477153 1-1v-18c0-.5522847.4477153-1 1-1s1 .4477153 1 1v11c0 .5522847.4477153 1 1 1s1-.4477153 1-1v-15c.0028887-.4046826.2494031-.7677289.6244829-.9196877.3750799-.1519588.8047714-.0628687 1.0885171.2256877.1854514.1830903.2889672.4334037.287.694v15c0 .5522847.4477153 1 1 1s1-.4477153 1-1v-11c0-.5522847.4477153-1 1-1s1 .4477153 1 1v11c0 .5522847.4477153 1 1 1s1-.4477153 1-1v-9c.0028887-.4046826.2494031-.7677289.6244829-.9196877.3750799-.1519588.8047714-.0628687 1.0885171.2256877.1854514.1830903.2889672.4334037.287.694z"/><path id="Shape" d="m36.8 33.266c.3378525-1.0267606.2478724-2.146329-.2496263-3.1059521-.4974988-.9596232-1.3605723-1.6783957-2.3943737-1.9940479-.946-.286-2.163-.465-2.781-1.587-.8811911-1.5895585-2.5555308-2.5757741-4.373-2.5757741s-3.4918089.9862156-4.373 2.5757741c-.614 1.115-1.834 1.3-2.781 1.587-1.3636828.4297905-2.3944872 1.5544494-2.7041191 2.9503286-.3096319 1.3958791.1489492 2.8509113 1.2030001 3.817s2.5434362 1.2964619 3.907119.8666714c3.0789971-1.0537935 6.4210029-1.0537935 9.5 0 2.0928412.6893305 4.3490399-.4436872 5.046-2.534zm-9.8-.266c-1.8246431.0502254-3.6335199.3531071-5.375.9-.5006031.1660864-1.0468413.1250375-1.517-.114-.7076099-.359021-1.1377848-1.1007307-1.0980203-1.893212.0397646-.7924812.5420258-1.4874039 1.2820203-1.773788.188-.044.192-.071 1-.287 1.2942418-.3149301 2.4061681-1.139768 3.083-2.287.5295422-.9509139 1.5325827-1.5404251 2.621-1.5404251s2.0914578.5895112 2.621 1.5404251c1.061 1.92 3.01 2.233 4.009 2.551 1.0465796.3589851 1.6039851 1.4984204 1.245 2.545s-1.4984204 1.6039851-2.545 1.245c-1.7265495-.5371381-3.5185393-.8352423-5.326-.886z"/><path id="Shape" d="m23.892 21.881c3.242-1.047 2.509-7.8-.72-9.532-2.638-1.419-5.024 1.551-3.887 5.651.627 2.29 2.482 4.576 4.607 3.881zm-2.163-7.861c.1720054-.0375786.3518944-.0051986.5.09.8079431.5795103 1.3658409 1.4440553 1.561 2.419.5 1.813.023 3.274-.512 3.45-.1718397.039365-.3522986.0072434-.5-.089-.8079431-.5795103-1.3658409-1.4440553-1.561-2.419-.506-1.813-.029-3.277.512-3.451z"/><path id="Shape" d="m18.763 26.617c1.361-.8 1.793-2.877.3-4.791-2.03-2.6-5.53-2.315-6.016.278-.547 2.938 3.241 5.996 5.716 4.513zm-3.25-2.673c-.436-.554-.767-1.547-.257-1.847.931-.557 2.977 1.128 2.726 2.429-.0164761.1534613-.104294.2901904-.237.369l-.011.006c-.477.286-1.526-.056-2.221-.957z"/><path id="Shape" d="m36.672 27c2.4 0 4.707-2.595 4.277-4.893-.484-2.585-3.978-2.893-6.016-.277-1.863 2.39-.76 5.17 1.739 5.17zm1.665-5c.979 0 .747 1.185.144 1.952-.844 1.095-1.886 1.149-2.226.943-.855-.517.485-2.895 2.082-2.895z"/><path id="Shape" d="m32.172 21.651c3.222-1.732 3.974-8.484.723-9.531-2.105-.69-3.971 1.547-4.609 3.874-1.159 4.177 1.305 7.047 3.886 5.657zm-1.957-5.126c.1954688-.9734823.752982-1.8365557 1.56-2.415.1481244-.0951696.3281339-.1272113.5-.089.536.173 1.013 1.637.509 3.454-.1954688.9734823-.752982 1.8365557-1.56 2.415-.1477014.0962434-.3281603.128365-.5.089-.533-.179-1.013-1.637-.509-3.454z"/></g></g></svg>